<?xml version="1.0" encoding="UTF-8"?>
<!DOCTYPE svg PUBLIC "-//W3C//DTD SVG 1.1//EN" "http://www.w3.org/Graphics/SVG/1.1/DTD/svg11.dtd">
<!-- Creator: CorelDRAW -->
<svg xmlns="http://www.w3.org/2000/svg" xml:space="preserve" width="42.0112mm" height="24.1236mm" version="1.1" style="shape-rendering:geometricPrecision; text-rendering:geometricPrecision; image-rendering:optimizeQuality; fill-rule:evenodd; clip-rule:evenodd"
viewBox="0 0 932.43 535.42"
 xmlns:xlink="http://www.w3.org/1999/xlink"
 xmlns:xodm="http://www.corel.com/coreldraw/odm/2003">
 <defs>
  <style type="text/css">
   <![CDATA[
    .fil0 {fill:#304663}
    .fil3 {fill:#304663;fill-rule:nonzero}
    .fil2 {fill:url(#id0)}
    .fil1 {fill:url(#id1)}
   ]]>
  </style>
  <linearGradient id="id0" gradientUnits="userSpaceOnUse" x1="562.81" y1="52.49" x2="373.34" y2="244.13">
   <stop offset="0" style="stop-opacity:1; stop-color:#FECC09"/>
   <stop offset="1" style="stop-opacity:1; stop-color:#E63C24"/>
  </linearGradient>
  <linearGradient id="id1" gradientUnits="userSpaceOnUse" x1="473.26" y1="262.95" x2="259.88" y2="142.23">
   <stop offset="0" style="stop-opacity:1; stop-color:#566F8D"/>
   <stop offset="1" style="stop-opacity:1; stop-color:#304663"/>
  </linearGradient>
 </defs>
 <g id="Layer_x0020_1">
  <metadata id="CorelCorpID_0Corel-Layer"/>
  <g id="_2466010009440">
   <path class="fil0" d="M468.08 327.81c15.66,-14.82 48.94,-19.67 66.39,-19.67l97.38 0 0 -258.49c0,-10.79 8.83,-19.62 19.62,-19.62 10.79,0 19.62,8.83 19.62,19.62l0 295.96 -135.86 0c-18.74,0 -50.96,7.87 -67.16,29.55l-5.81 -41.33 5.81 -6.02z"/>
   <path class="fil1" d="M468.08 375.16c-20.99,-22.95 -42.7,-29.55 -73.92,-29.55l-129.1 0 0 -315.58 114.87 0c10.8,0 19.62,8.83 19.62,19.62 0,10.79 -8.84,19.62 -19.62,19.62l-75.63 0 0 238.87 95.02 0c35.85,0 57.18,10.01 68.76,19.67l0 47.35z"/>
   <path class="fil2" d="M452.19 205.63l0 56.26c6.61,2.67 11.27,9.15 11.27,16.71 0,9.95 -8.07,18.02 -18.02,18.02 -9.95,0 -18.02,-8.07 -18.02,-18.02 0,-7.56 4.66,-14.04 11.27,-16.71l0 -56.26c-6.61,-2.67 -11.27,-9.15 -11.27,-16.71 0,-0.86 0.06,-1.7 0.18,-2.52l-35.18 -20.31c-4.63,4.58 -10.99,7.41 -18.01,7.41 -14.13,0 -25.59,-11.46 -25.59,-25.59 0,-14.13 11.46,-25.59 25.59,-25.59 14.14,0 25.59,11.46 25.59,25.59 0,2.25 -0.29,4.43 -0.84,6.51l35.17 20.31c3.06,-2.4 6.92,-3.83 11.11,-3.83 4.19,0 8.05,1.43 11.11,3.83l42.09 -24.3c-0.12,-0.83 -0.18,-1.67 -0.18,-2.52 0,-9.95 8.07,-18.02 18.02,-18.02 9.95,0 18.02,8.07 18.02,18.02 0,9.95 -8.07,18.02 -18.02,18.02 -4.19,0 -8.05,-1.43 -11.11,-3.83l-42.09 24.3c0.12,0.83 0.18,1.66 0.18,2.52 0,7.57 -4.66,14.04 -11.27,16.71zm-6.75 -131.17c7.02,0 13.39,2.83 18.01,7.42l35.18 -20.31c-0.12,-0.82 -0.18,-1.67 -0.18,-2.52 0,-0.86 0.06,-1.7 0.18,-2.52l-42.09 -24.3c-3.06,2.4 -6.92,3.83 -11.11,3.83 -9.95,0 -18.02,-8.07 -18.02,-18.02 0,-9.95 8.07,-18.02 18.02,-18.02 9.95,0 18.02,8.07 18.02,18.02 0,0.86 -0.06,1.7 -0.18,2.52l42.09 24.3c3.06,-2.4 6.92,-3.83 11.11,-3.83 9.95,0 18.02,8.07 18.02,18.02 0,9.95 -8.07,18.02 -18.02,18.02 -4.19,0 -8.05,-1.43 -11.11,-3.83l-35.17 20.31c0.55,2.08 0.84,4.26 0.84,6.51 0,14.14 -11.46,25.6 -25.59,25.6 -14.14,0 -25.59,-11.46 -25.59,-25.6 0,-14.13 11.46,-25.59 25.59,-25.59zm52.86 157.14c4.19,0 8.05,1.43 11.11,3.83l42.08 -24.3c-0.12,-0.82 -0.18,-1.67 -0.18,-2.52 0,-7.57 4.66,-14.04 11.27,-16.71l0 -52.43c-6.61,-2.67 -11.27,-9.15 -11.27,-16.71 0,-9.95 8.07,-18.02 18.02,-18.02 9.95,0 18.02,8.07 18.02,18.02 0,7.57 -4.66,14.04 -11.27,16.71l0 52.43c6.61,2.67 11.27,9.15 11.27,16.71 0,9.95 -8.07,18.02 -18.02,18.02 -4.19,0 -8.05,-1.43 -11.11,-3.83l-42.08 24.3c0.12,0.82 0.18,1.67 0.18,2.52 0,9.95 -8.07,18.02 -18.02,18.02 -9.95,0 -18.02,-8.07 -18.02,-18.02 0,-9.95 8.07,-18.02 18.02,-18.02z"/>
   <path class="fil3" d="M62.21 458.19c-3.82,-2.09 -7.71,-3.82 -11.66,-5.18 -3.96,-1.36 -7.66,-2.05 -11.12,-2.05 -4.27,0 -7.64,0.86 -10.09,2.59 -2.46,1.73 -3.68,4.32 -3.68,7.77 0,2.37 0.93,4.48 2.8,6.34 1.86,1.86 4.27,3.52 7.23,4.98 2.96,1.45 6.03,2.77 9.21,3.96 2.91,1.09 5.8,2.39 8.66,3.89 2.87,1.5 5.43,3.36 7.71,5.59 2.27,2.23 4.09,5 5.46,8.32 1.36,3.32 2.05,7.39 2.05,12.21 0,5.09 -1.32,9.82 -3.96,14.19 -2.64,4.37 -6.5,7.89 -11.6,10.57 -5.09,2.68 -11.37,4.02 -18.83,4.02 -3.82,0 -7.71,-0.39 -11.66,-1.16 -3.96,-0.77 -7.84,-1.96 -11.66,-3.55 -3.82,-1.59 -7.5,-3.62 -11.05,-6.07l8.73 -15.42c2.36,1.73 4.93,3.25 7.71,4.57 2.77,1.32 5.57,2.34 8.39,3.07 2.82,0.73 5.41,1.09 7.77,1.09 2.36,0 4.75,-0.34 7.16,-1.02 2.41,-0.68 4.41,-1.84 6,-3.48 1.59,-1.64 2.39,-3.91 2.39,-6.82 0,-2 -0.66,-3.82 -1.98,-5.46 -1.32,-1.64 -3.09,-3.14 -5.32,-4.5 -2.23,-1.36 -4.66,-2.55 -7.3,-3.55 -3.09,-1.18 -6.27,-2.55 -9.55,-4.09 -3.27,-1.55 -6.34,-3.43 -9.21,-5.66 -2.87,-2.23 -5.18,-5 -6.96,-8.32 -1.77,-3.32 -2.66,-7.39 -2.66,-12.21 0,-5.82 1.29,-10.87 3.89,-15.14 2.59,-4.27 6.25,-7.66 10.98,-10.16 4.73,-2.5 10.19,-3.89 16.37,-4.16 8.09,0 14.67,0.95 19.71,2.87 5.05,1.91 9.57,4.18 13.57,6.82l-7.5 15.14zm101.22 67.8c-1.09,0.91 -3.12,2.14 -6.07,3.68 -2.96,1.55 -6.57,2.91 -10.85,4.09 -4.27,1.18 -9,1.73 -14.19,1.64 -7.91,-0.18 -14.98,-1.62 -21.21,-4.3 -6.23,-2.68 -11.51,-6.35 -15.82,-10.98 -4.32,-4.64 -7.62,-9.96 -9.89,-15.96 -2.27,-6 -3.41,-12.41 -3.41,-19.23 0,-7.64 1.16,-14.64 3.48,-21.01 2.32,-6.37 5.64,-11.87 9.96,-16.51 4.32,-4.64 9.48,-8.23 15.48,-10.78 6,-2.55 12.64,-3.82 19.92,-3.82 6.73,0 12.69,0.91 17.87,2.73 5.18,1.82 9.41,3.78 12.69,5.87l-7.78 18.69c-2.27,-1.73 -5.3,-3.52 -9.07,-5.39 -3.78,-1.86 -8.12,-2.8 -13.03,-2.8 -3.82,0 -7.48,0.8 -10.98,2.39 -3.5,1.59 -6.59,3.84 -9.28,6.75 -2.68,2.91 -4.8,6.3 -6.34,10.16 -1.54,3.87 -2.32,8.07 -2.32,12.62 0,4.82 0.71,9.23 2.12,13.23 1.41,4 3.43,7.44 6.07,10.3 2.64,2.86 5.8,5.07 9.48,6.62 3.68,1.54 7.84,2.32 12.48,2.32 5.37,0 9.96,-0.87 13.78,-2.59 3.82,-1.73 6.73,-3.55 8.73,-5.46l8.19 17.74zm104.22 -92.08l0 100.4 -19.78 0 0 -40.79 -44.88 0 0 40.79 -19.78 0 0 -100.4 19.78 0 0 40.52 44.88 0 0 -40.52 19.78 0zm19.78 50.34c0,-6.91 1.32,-13.46 3.96,-19.64 2.64,-6.18 6.3,-11.66 10.98,-16.44 4.68,-4.77 10.12,-8.53 16.3,-11.25 6.18,-2.73 12.82,-4.09 19.92,-4.09 7,0 13.6,1.36 19.78,4.09 6.18,2.73 11.66,6.48 16.44,11.25 4.77,4.77 8.5,10.25 11.19,16.44 2.68,6.19 4.02,12.73 4.02,19.64 0,7.1 -1.34,13.73 -4.02,19.92 -2.68,6.19 -6.41,11.62 -11.19,16.3 -4.78,4.69 -10.26,8.35 -16.44,10.98 -6.18,2.64 -12.78,3.96 -19.78,3.96 -7.1,0 -13.73,-1.32 -19.92,-3.96 -6.19,-2.64 -11.62,-6.3 -16.3,-10.98 -4.69,-4.68 -8.35,-10.12 -10.98,-16.3 -2.64,-6.18 -3.96,-12.82 -3.96,-19.92zm20.46 0c0,4.46 0.8,8.62 2.39,12.48 1.59,3.87 3.82,7.28 6.68,10.23 2.87,2.96 6.19,5.25 9.96,6.89 3.78,1.64 7.89,2.46 12.35,2.46 4.27,0 8.25,-0.82 11.94,-2.46 3.68,-1.64 6.89,-3.93 9.62,-6.89 2.73,-2.95 4.87,-6.37 6.41,-10.23 1.55,-3.86 2.32,-8.03 2.32,-12.48 0,-4.55 -0.79,-8.78 -2.39,-12.69 -1.59,-3.91 -3.78,-7.34 -6.55,-10.3 -2.77,-2.95 -6.02,-5.25 -9.75,-6.89 -3.73,-1.64 -7.77,-2.46 -12.14,-2.46 -4.37,0 -8.41,0.82 -12.14,2.46 -3.73,1.64 -7,3.93 -9.82,6.89 -2.82,2.96 -5,6.39 -6.55,10.3 -1.55,3.91 -2.32,8.14 -2.32,12.69zm95.77 0c0,-6.91 1.32,-13.46 3.96,-19.64 2.64,-6.18 6.3,-11.66 10.98,-16.44 4.68,-4.77 10.12,-8.53 16.3,-11.25 6.18,-2.73 12.82,-4.09 19.92,-4.09 7,0 13.6,1.36 19.78,4.09 6.18,2.73 11.66,6.48 16.44,11.25 4.77,4.77 8.5,10.25 11.19,16.44 2.68,6.19 4.02,12.73 4.02,19.64 0,7.1 -1.34,13.73 -4.02,19.92 -2.68,6.19 -6.41,11.62 -11.19,16.3 -4.78,4.69 -10.26,8.35 -16.44,10.98 -6.18,2.64 -12.78,3.96 -19.78,3.96 -7.1,0 -13.73,-1.32 -19.92,-3.96 -6.19,-2.64 -11.62,-6.3 -16.3,-10.98 -4.69,-4.68 -8.35,-10.12 -10.98,-16.3 -2.64,-6.18 -3.96,-12.82 -3.96,-19.92zm20.46 0c0,4.46 0.8,8.62 2.39,12.48 1.59,3.87 3.82,7.28 6.68,10.23 2.87,2.96 6.19,5.25 9.96,6.89 3.78,1.64 7.89,2.46 12.35,2.46 4.27,0 8.25,-0.82 11.94,-2.46 3.68,-1.64 6.89,-3.93 9.62,-6.89 2.73,-2.95 4.87,-6.37 6.41,-10.23 1.55,-3.86 2.32,-8.03 2.32,-12.48 0,-4.55 -0.79,-8.78 -2.39,-12.69 -1.59,-3.91 -3.78,-7.34 -6.55,-10.3 -2.77,-2.95 -6.02,-5.25 -9.75,-6.89 -3.73,-1.64 -7.77,-2.46 -12.14,-2.46 -4.37,0 -8.41,0.82 -12.14,2.46 -3.73,1.64 -7,3.93 -9.82,6.89 -2.82,2.96 -5,6.39 -6.55,10.3 -1.55,3.91 -2.32,8.14 -2.32,12.69zm101.9 -50.34l19.78 0 0 81.31 47.2 0 0 19.1 -66.98 0 0 -100.4zm87.45 0l19.78 0 0 81.31 47.2 0 0 19.1 -66.98 0 0 -100.4zm87.45 0l68.48 0 0 19.1 -48.7 0 0 21.42 43.11 0 0 19.1 -43.11 0 0 21.69 50.61 0 0 19.1 -70.39 0 0 -100.4zm144.47 24.28c-3.82,-2.09 -7.71,-3.82 -11.66,-5.18 -3.96,-1.36 -7.66,-2.05 -11.12,-2.05 -4.27,0 -7.64,0.86 -10.09,2.59 -2.46,1.73 -3.68,4.32 -3.68,7.77 0,2.37 0.93,4.48 2.8,6.34 1.86,1.86 4.27,3.52 7.23,4.98 2.96,1.45 6.03,2.77 9.21,3.96 2.91,1.09 5.8,2.39 8.66,3.89 2.87,1.5 5.43,3.36 7.71,5.59 2.27,2.23 4.09,5 5.46,8.32 1.36,3.32 2.05,7.39 2.05,12.21 0,5.09 -1.32,9.82 -3.96,14.19 -2.64,4.37 -6.5,7.89 -11.6,10.57 -5.09,2.68 -11.37,4.02 -18.83,4.02 -3.82,0 -7.71,-0.39 -11.66,-1.16 -3.96,-0.77 -7.84,-1.96 -11.66,-3.55 -3.82,-1.59 -7.5,-3.62 -11.05,-6.07l8.73 -15.42c2.36,1.73 4.93,3.25 7.71,4.57 2.77,1.32 5.57,2.34 8.39,3.07 2.82,0.73 5.41,1.09 7.77,1.09 2.36,0 4.75,-0.34 7.16,-1.02 2.41,-0.68 4.41,-1.84 6,-3.48 1.59,-1.64 2.39,-3.91 2.39,-6.82 0,-2 -0.66,-3.82 -1.98,-5.46 -1.32,-1.64 -3.09,-3.14 -5.32,-4.5 -2.23,-1.36 -4.66,-2.55 -7.3,-3.55 -3.09,-1.18 -6.27,-2.55 -9.55,-4.09 -3.27,-1.55 -6.34,-3.43 -9.21,-5.66 -2.87,-2.23 -5.18,-5 -6.96,-8.32 -1.77,-3.32 -2.66,-7.39 -2.66,-12.21 0,-5.82 1.29,-10.87 3.89,-15.14 2.59,-4.27 6.25,-7.66 10.98,-10.16 4.73,-2.5 10.19,-3.89 16.37,-4.16 8.09,0 14.67,0.95 19.71,2.87 5.05,1.91 9.57,4.18 13.57,6.82l-7.5 15.14zm79.53 0c-3.82,-2.09 -7.71,-3.82 -11.66,-5.18 -3.96,-1.36 -7.66,-2.05 -11.12,-2.05 -4.27,0 -7.64,0.86 -10.09,2.59 -2.46,1.73 -3.68,4.32 -3.68,7.77 0,2.37 0.93,4.48 2.8,6.34 1.86,1.86 4.27,3.52 7.23,4.98 2.96,1.45 6.03,2.77 9.21,3.96 2.91,1.09 5.8,2.39 8.66,3.89 2.87,1.5 5.43,3.36 7.71,5.59 2.27,2.23 4.09,5 5.46,8.32 1.36,3.32 2.05,7.39 2.05,12.21 0,5.09 -1.32,9.82 -3.96,14.19 -2.64,4.37 -6.5,7.89 -11.6,10.57 -5.09,2.68 -11.37,4.02 -18.83,4.02 -3.82,0 -7.71,-0.39 -11.66,-1.16 -3.96,-0.77 -7.84,-1.96 -11.66,-3.55 -3.82,-1.59 -7.5,-3.62 -11.05,-6.07l8.73 -15.42c2.36,1.73 4.93,3.25 7.71,4.57 2.77,1.32 5.57,2.34 8.39,3.07 2.82,0.73 5.41,1.09 7.77,1.09 2.36,0 4.75,-0.34 7.16,-1.02 2.41,-0.68 4.41,-1.84 6,-3.48 1.59,-1.64 2.39,-3.91 2.39,-6.82 0,-2 -0.66,-3.82 -1.98,-5.46 -1.32,-1.64 -3.09,-3.14 -5.32,-4.5 -2.23,-1.36 -4.66,-2.55 -7.3,-3.55 -3.09,-1.18 -6.27,-2.55 -9.55,-4.09 -3.27,-1.55 -6.34,-3.43 -9.21,-5.66 -2.87,-2.23 -5.18,-5 -6.96,-8.32 -1.77,-3.32 -2.66,-7.39 -2.66,-12.21 0,-5.82 1.29,-10.87 3.89,-15.14 2.59,-4.27 6.25,-7.66 10.98,-10.16 4.73,-2.5 10.19,-3.89 16.37,-4.16 8.09,0 14.67,0.95 19.71,2.87 5.05,1.91 9.57,4.18 13.57,6.82l-7.5 15.14z"/>
  </g>
 </g>
</svg>
