<?xml version="1.0" encoding="UTF-8"?>
<!DOCTYPE svg PUBLIC "-//W3C//DTD SVG 1.1//EN" "http://www.w3.org/Graphics/SVG/1.1/DTD/svg11.dtd">
<!-- Creator: CorelDRAW -->
<svg xmlns="http://www.w3.org/2000/svg" xml:space="preserve" width="83.1922mm" height="16.9029mm" version="1.1" style="shape-rendering:geometricPrecision; text-rendering:geometricPrecision; image-rendering:optimizeQuality; fill-rule:evenodd; clip-rule:evenodd"
viewBox="0 0 10567 2146.99"
 xmlns:xlink="http://www.w3.org/1999/xlink"
 xmlns:xodm="http://www.corel.com/coreldraw/odm/2003">
 <defs>
  <style type="text/css">
   <![CDATA[
    .fil1 {fill:#FEFEFE}
    .fil0 {fill:#FEFEFE;fill-rule:nonzero}
   ]]>
  </style>
 </defs>
 <g id="Layer_x0020_1">
  <metadata id="CorelCorpID_0Corel-Layer"/>
  <g id="_2466007271984">
   <path class="fil0" d="M3232.01 867.45c-32.2,-17.63 -64.97,-32.2 -98.31,-43.69 -33.34,-11.5 -64.58,-17.25 -93.71,-17.25 -36.02,0 -64.39,7.28 -85.09,21.85 -20.69,14.57 -31.04,36.42 -31.04,65.54 0,19.93 7.86,37.75 23.57,53.48 15.71,15.71 36.02,29.7 60.94,41.97 24.91,12.26 50.78,23.38 77.61,33.34 24.53,9.2 48.88,20.12 73.02,32.77 24.15,12.65 45.8,28.36 64.96,47.15 19.17,18.77 34.5,42.16 46.01,70.14 11.5,27.98 17.24,62.28 17.24,102.91 0,42.93 -11.11,82.79 -33.34,119.59 -22.23,36.8 -54.81,66.49 -97.74,89.12 -42.92,22.61 -95.82,33.91 -158.67,33.91 -32.2,0 -64.97,-3.25 -98.31,-9.77 -33.36,-6.52 -66.13,-16.49 -98.31,-29.9 -32.2,-13.41 -63.24,-30.47 -93.14,-51.16l73.59 -129.94c19.93,14.57 41.59,27.41 64.96,38.52 23.38,11.11 46.96,19.74 70.72,25.87 23.77,6.12 45.61,9.2 65.54,9.2 19.93,0 40.05,-2.88 60.36,-8.62 20.32,-5.75 37.19,-15.52 50.6,-29.33 13.41,-13.79 20.12,-32.96 20.12,-57.49 0,-16.87 -5.56,-32.2 -16.68,-45.99 -11.11,-13.79 -26.06,-26.45 -44.84,-37.94 -18.79,-11.51 -39.29,-21.47 -61.52,-29.9 -26.06,-9.97 -52.9,-21.47 -80.49,-34.5 -27.6,-13.03 -53.48,-28.93 -77.62,-47.72 -24.15,-18.77 -43.69,-42.16 -58.64,-70.14 -14.95,-27.98 -22.42,-62.29 -22.42,-102.91 0,-49.07 10.92,-91.61 32.77,-127.64 21.85,-36.02 52.7,-64.58 92.56,-85.66 39.87,-21.09 85.86,-32.77 137.99,-35.07 68.22,0 123.6,8.05 166.15,24.15 42.54,16.09 80.68,35.26 114.41,57.49l-63.24 127.64zm853.2 571.48c-9.2,7.66 -26.25,18.01 -51.16,31.04 -24.92,13.03 -55.39,24.53 -91.42,34.5 -36.04,9.96 -75.89,14.57 -119.59,13.79 -66.7,-1.52 -126.3,-13.6 -178.8,-36.21 -52.51,-22.62 -96.98,-53.48 -133.38,-92.57 -36.42,-39.1 -64.21,-83.93 -83.36,-134.53 -19.17,-50.6 -28.76,-104.64 -28.76,-162.14 0,-64.39 9.78,-123.41 29.33,-177.08 19.55,-53.67 47.53,-100.04 83.93,-139.14 36.42,-39.1 79.92,-69.37 130.51,-90.83 50.59,-21.47 106.56,-32.2 167.88,-32.2 56.73,0 106.94,7.66 150.63,22.99 43.69,15.33 79.34,31.82 106.94,49.45l-65.54 157.53c-19.17,-14.56 -44.65,-29.7 -76.47,-45.42 -31.82,-15.71 -68.41,-23.56 -109.81,-23.56 -32.2,0 -63.05,6.71 -92.57,20.12 -29.51,13.41 -55.57,32.39 -78.19,56.92 -22.61,24.53 -40.43,53.08 -53.46,85.66 -13.03,32.58 -19.55,68.03 -19.55,106.37 0,40.63 5.94,77.81 17.82,111.54 11.89,33.74 28.93,62.67 51.18,86.82 22.23,24.15 48.86,42.74 79.91,55.76 31.04,13.03 66.11,19.55 105.21,19.55 45.23,0 83.95,-7.28 116.15,-21.85 32.19,-14.56 56.73,-29.89 73.58,-45.99l69 149.49zm878.49 -776.16l0 846.3 -166.73 0 0 -343.82 -378.31 0 0 343.82 -166.73 0 0 -846.3 166.73 0 0 341.52 378.31 0 0 -341.52 166.73 0zm166.73 424.31c0,-58.26 11.11,-113.45 33.36,-165.58 22.23,-52.13 53.08,-98.31 92.56,-138.57 39.48,-40.24 85.28,-71.87 137.41,-94.86 52.13,-23 108.09,-34.5 167.88,-34.5 59.03,0 114.6,11.5 166.73,34.5 52.13,22.99 98.31,54.62 138.57,94.86 40.24,40.25 71.68,86.44 94.29,138.57 22.61,52.13 33.93,107.32 33.93,165.58 0,59.79 -11.32,115.75 -33.93,167.88 -22.61,52.12 -54.05,97.92 -94.29,137.41 -40.25,39.48 -86.44,70.33 -138.57,92.56 -52.13,22.23 -107.7,33.34 -166.73,33.34 -59.79,0 -115.75,-11.11 -167.88,-33.34 -52.13,-22.23 -97.93,-53.08 -137.41,-92.56 -39.48,-39.49 -70.33,-85.29 -92.56,-137.41 -22.24,-52.13 -33.36,-108.09 -33.36,-167.88zm172.48 0c0,37.56 6.71,72.63 20.13,105.21 13.41,32.58 32.19,61.32 56.33,86.23 24.16,24.92 52.13,44.28 83.95,58.07 31.81,13.79 66.49,20.69 104.07,20.69 36.02,0 69.56,-6.9 100.61,-20.69 31.04,-13.79 58.06,-33.15 81.06,-58.07 22.99,-24.91 41.01,-53.65 54.05,-86.23 13.03,-32.58 19.55,-67.65 19.55,-105.21 0,-38.33 -6.71,-73.98 -20.13,-106.94 -13.41,-32.97 -31.81,-61.91 -55.19,-86.82 -23.38,-24.92 -50.78,-44.27 -82.22,-58.07 -31.42,-13.79 -65.54,-20.69 -102.33,-20.69 -36.8,0 -70.91,6.9 -102.34,20.69 -31.44,13.81 -59.03,33.15 -82.79,58.07 -23.77,24.91 -42.17,53.84 -55.2,86.82 -13.03,32.96 -19.55,68.6 -19.55,106.94zm807.21 0c0,-58.26 11.11,-113.45 33.36,-165.58 22.23,-52.13 53.08,-98.31 92.56,-138.57 39.48,-40.24 85.28,-71.87 137.41,-94.86 52.13,-23 108.09,-34.5 167.88,-34.5 59.03,0 114.6,11.5 166.73,34.5 52.13,22.99 98.31,54.62 138.57,94.86 40.24,40.25 71.68,86.44 94.29,138.57 22.61,52.13 33.93,107.32 33.93,165.58 0,59.79 -11.32,115.75 -33.93,167.88 -22.61,52.12 -54.05,97.92 -94.29,137.41 -40.25,39.48 -86.44,70.33 -138.57,92.56 -52.13,22.23 -107.7,33.34 -166.73,33.34 -59.79,0 -115.75,-11.11 -167.88,-33.34 -52.13,-22.23 -97.93,-53.08 -137.41,-92.56 -39.48,-39.49 -70.33,-85.29 -92.56,-137.41 -22.24,-52.13 -33.36,-108.09 -33.36,-167.88zm172.48 0c0,37.56 6.71,72.63 20.13,105.21 13.41,32.58 32.19,61.32 56.33,86.23 24.16,24.92 52.13,44.28 83.95,58.07 31.81,13.79 66.49,20.69 104.07,20.69 36.02,0 69.56,-6.9 100.61,-20.69 31.04,-13.79 58.06,-33.15 81.06,-58.07 22.99,-24.91 41.01,-53.65 54.05,-86.23 13.03,-32.58 19.55,-67.65 19.55,-105.21 0,-38.33 -6.71,-73.98 -20.13,-106.94 -13.41,-32.97 -31.81,-61.91 -55.19,-86.82 -23.38,-24.92 -50.78,-44.27 -82.22,-58.07 -31.42,-13.79 -65.54,-20.69 -102.33,-20.69 -36.8,0 -70.91,6.9 -102.34,20.69 -31.44,13.81 -59.03,33.15 -82.79,58.07 -23.77,24.91 -42.17,53.84 -55.2,86.82 -13.03,32.96 -19.55,68.6 -19.55,106.94zm858.95 -424.31l166.73 0 0 685.32 397.86 0 0 160.98 -564.59 0 0 -846.3zm737.07 0l166.73 0 0 685.32 397.86 0 0 160.98 -564.59 0 0 -846.3zm737.07 0l577.24 0 0 160.98 -410.51 0 0 180.53 363.36 0 0 160.97 -363.36 0 0 182.83 426.61 0 0 160.98 -593.33 0 0 -846.3zm1217.71 204.68c-32.2,-17.63 -64.97,-32.2 -98.31,-43.69 -33.34,-11.5 -64.58,-17.25 -93.71,-17.25 -36.02,0 -64.39,7.28 -85.09,21.85 -20.69,14.57 -31.04,36.42 -31.04,65.54 0,19.93 7.86,37.75 23.57,53.48 15.71,15.71 36.02,29.7 60.94,41.97 24.91,12.26 50.78,23.38 77.61,33.34 24.53,9.2 48.88,20.12 73.02,32.77 24.15,12.65 45.8,28.36 64.96,47.15 19.17,18.77 34.5,42.16 46.01,70.14 11.5,27.98 17.24,62.28 17.24,102.91 0,42.93 -11.11,82.79 -33.34,119.59 -22.23,36.8 -54.81,66.49 -97.74,89.12 -42.92,22.61 -95.82,33.91 -158.67,33.91 -32.2,0 -64.97,-3.25 -98.31,-9.77 -33.36,-6.52 -66.13,-16.49 -98.31,-29.9 -32.2,-13.41 -63.24,-30.47 -93.14,-51.16l73.59 -129.94c19.93,14.57 41.59,27.41 64.96,38.52 23.38,11.11 46.96,19.74 70.72,25.87 23.77,6.12 45.61,9.2 65.54,9.2 19.93,0 40.05,-2.88 60.36,-8.62 20.32,-5.75 37.19,-15.52 50.6,-29.33 13.41,-13.79 20.12,-32.96 20.12,-57.49 0,-16.87 -5.56,-32.2 -16.68,-45.99 -11.11,-13.79 -26.06,-26.45 -44.84,-37.94 -18.79,-11.51 -39.29,-21.47 -61.52,-29.9 -26.06,-9.97 -52.9,-21.47 -80.49,-34.5 -27.6,-13.03 -53.48,-28.93 -77.62,-47.72 -24.15,-18.77 -43.69,-42.16 -58.64,-70.14 -14.95,-27.98 -22.42,-62.29 -22.42,-102.91 0,-49.07 10.92,-91.61 32.77,-127.64 21.85,-36.02 52.7,-64.58 92.56,-85.66 39.87,-21.09 85.86,-32.77 137.99,-35.07 68.22,0 123.6,8.05 166.15,24.15 42.54,16.09 80.68,35.26 114.41,57.49l-63.24 127.64zm670.37 0c-32.2,-17.63 -64.97,-32.2 -98.31,-43.69 -33.34,-11.5 -64.58,-17.25 -93.71,-17.25 -36.02,0 -64.39,7.28 -85.09,21.85 -20.69,14.57 -31.04,36.42 -31.04,65.54 0,19.93 7.86,37.75 23.57,53.48 15.71,15.71 36.02,29.7 60.94,41.97 24.91,12.26 50.78,23.38 77.61,33.34 24.53,9.2 48.88,20.12 73.02,32.77 24.15,12.65 45.8,28.36 64.96,47.15 19.17,18.77 34.5,42.16 46.01,70.14 11.5,27.98 17.24,62.28 17.24,102.91 0,42.93 -11.11,82.79 -33.34,119.59 -22.23,36.8 -54.81,66.49 -97.74,89.12 -42.92,22.61 -95.82,33.91 -158.67,33.91 -32.2,0 -64.97,-3.25 -98.31,-9.77 -33.36,-6.52 -66.13,-16.49 -98.31,-29.9 -32.2,-13.41 -63.24,-30.47 -93.14,-51.16l73.59 -129.94c19.93,14.57 41.59,27.41 64.96,38.52 23.38,11.11 46.96,19.74 70.72,25.87 23.77,6.12 45.61,9.2 65.54,9.2 19.93,0 40.05,-2.88 60.36,-8.62 20.32,-5.75 37.19,-15.52 50.6,-29.33 13.41,-13.79 20.12,-32.96 20.12,-57.49 0,-16.87 -5.56,-32.2 -16.68,-45.99 -11.11,-13.79 -26.06,-26.45 -44.84,-37.94 -18.79,-11.51 -39.29,-21.47 -61.52,-29.9 -26.06,-9.97 -52.9,-21.47 -80.49,-34.5 -27.6,-13.03 -53.48,-28.93 -77.62,-47.72 -24.15,-18.77 -43.69,-42.16 -58.64,-70.14 -14.95,-27.98 -22.42,-62.29 -22.42,-102.91 0,-49.07 10.92,-91.61 32.77,-127.64 21.85,-36.02 52.7,-64.58 92.56,-85.66 39.87,-21.09 85.86,-32.77 137.99,-35.07 68.22,0 123.6,8.05 166.15,24.15 42.54,16.09 80.68,35.26 114.41,57.49l-63.24 127.64z"/>
   <path class="fil1" d="M1161.88 1876.02c89.64,-84.82 280.06,-112.56 379.97,-112.56l557.32 0 0 -1479.33c0,-61.76 50.53,-112.3 112.3,-112.3 61.77,0 112.3,50.53 112.3,112.3l0 1693.76 -777.53 0c-107.23,0 -291.62,45.04 -384.35,169.1 -120.11,-131.36 -244.38,-169.1 -423.04,-169.1l-738.84 0 0 -1806.06 657.4 0c61.78,0 112.3,50.53 112.3,112.3 0,61.77 -50.57,112.3 -112.3,112.3l-432.81 0 0 1367.03 543.77 0c205.16,0 327.21,57.31 393.52,112.56z"/>
   <path class="fil1" d="M1070.94 1176.81l0 321.97c37.81,15.31 64.49,52.36 64.49,95.65 0,56.97 -46.17,103.15 -103.14,103.15 -56.97,0 -103.15,-46.18 -103.15,-103.15 0,-43.29 26.69,-80.34 64.5,-95.65l0 -321.97c-37.81,-15.29 -64.5,-52.34 -64.5,-95.65 0,-4.9 0.36,-9.73 1.02,-14.44l-201.34 -116.24c-26.47,26.22 -62.87,42.42 -103.08,42.42 -80.89,0 -146.48,-65.58 -146.48,-146.48 0,-80.89 65.59,-146.48 146.48,-146.48 80.9,0 146.48,65.59 146.48,146.48 0,12.88 -1.66,25.37 -4.79,37.27l201.29 116.22c17.53,-13.73 39.59,-21.91 63.57,-21.91 23.98,0 46.04,8.19 63.56,21.91l240.85 -139.05c-0.66,-4.73 -1.02,-9.54 -1.02,-14.44 0,-56.96 46.18,-103.14 103.15,-103.14 56.96,0 103.14,46.18 103.14,103.14 0,56.97 -46.18,103.15 -103.14,103.15 -23.98,0 -46.06,-8.18 -63.57,-21.91l-240.85 139.06c0.66,4.73 1.02,9.53 1.02,14.43 0,43.3 -26.67,80.35 -64.49,95.65zm-38.65 -750.7c40.2,0 76.62,16.22 103.09,42.44l201.33 -116.24c-0.66,-4.71 -1.02,-9.54 -1.02,-14.44 0,-4.9 0.36,-9.73 1.02,-14.44l-240.85 -139.05c-17.52,13.73 -39.58,21.91 -63.56,21.91 -56.97,0 -103.15,-46.18 -103.15,-103.14 0,-56.97 46.18,-103.15 103.15,-103.15 56.97,0 103.14,46.18 103.14,103.15 0,4.9 -0.36,9.72 -1.02,14.43l240.85 139.06c17.52,-13.73 39.59,-21.91 63.57,-21.91 56.96,0 103.14,46.17 103.14,103.14 0,56.97 -46.18,103.15 -103.14,103.15 -23.98,0 -46.07,-8.19 -63.59,-21.92l-201.27 116.22c3.12,11.9 4.79,24.39 4.79,37.27 0,80.9 -65.59,146.49 -146.48,146.49 -80.9,0 -146.48,-65.59 -146.48,-146.49 0,-80.89 65.58,-146.48 146.48,-146.48zm302.52 899.28c23.98,0 46.06,8.18 63.57,21.91l240.84 -139.05c-0.66,-4.71 -1.02,-9.54 -1.02,-14.44 0,-43.3 26.69,-80.35 64.5,-95.65l0 -300.06c-37.81,-15.29 -64.5,-52.34 -64.5,-95.65 0,-56.97 46.18,-103.15 103.15,-103.15 56.97,0 103.14,46.18 103.14,103.15 0,43.3 -26.67,80.35 -64.49,95.65l0 300.06c37.81,15.29 64.49,52.34 64.49,95.65 0,56.97 -46.17,103.15 -103.14,103.15 -23.98,0 -46.06,-8.18 -63.57,-21.91l-240.84 139.05c0.66,4.71 1.02,9.54 1.02,14.44 0,56.96 -46.18,103.14 -103.15,103.14 -56.97,0 -103.14,-46.18 -103.14,-103.14 0,-56.97 46.17,-103.15 103.14,-103.15z"/>
  </g>
 </g>
</svg>
