<?xml version="1.0" encoding="UTF-8"?>
<!DOCTYPE svg PUBLIC "-//W3C//DTD SVG 1.1//EN" "http://www.w3.org/Graphics/SVG/1.1/DTD/svg11.dtd">
<!-- Creator: CorelDRAW -->
<svg xmlns="http://www.w3.org/2000/svg" xml:space="preserve" width="42.0112mm" height="24.1236mm" version="1.1" style="shape-rendering:geometricPrecision; text-rendering:geometricPrecision; image-rendering:optimizeQuality; fill-rule:evenodd; clip-rule:evenodd"
viewBox="0 0 1661.16 953.87"
 xmlns:xlink="http://www.w3.org/1999/xlink"
 xmlns:xodm="http://www.corel.com/coreldraw/odm/2003">
 <defs>
  <style type="text/css">
   <![CDATA[
    .fil0 {fill:#FEFEFE}
    .fil1 {fill:#FEFEFE;fill-rule:nonzero}
   ]]>
  </style>
 </defs>
 <g id="Layer_x0020_1">
  <metadata id="CorelCorpID_0Corel-Layer"/>
  <g id="_2466378293728">
   <path class="fil0" d="M833.9 584c27.9,-26.41 87.18,-35.04 118.28,-35.04l173.49 0 0 -460.51c0,-19.22 15.73,-34.96 34.96,-34.96 19.23,0 34.96,15.73 34.96,34.96l0 527.27 -242.05 0c-33.38,0 -90.78,14.02 -119.65,52.64 -37.39,-40.89 -76.08,-52.64 -131.69,-52.64l-230 0 0 -562.23 204.65 0c19.23,0 34.96,15.73 34.96,34.96 0,19.23 -15.74,34.96 -34.96,34.96l-134.73 0 0 425.56 169.27 0c63.87,0 101.86,17.84 122.5,35.04z"/>
   <path class="fil0" d="M805.59 366.34l0 100.23c11.77,4.76 20.07,16.3 20.07,29.77 0,17.73 -14.37,32.11 -32.11,32.11 -17.73,0 -32.11,-14.38 -32.11,-32.11 0,-13.48 8.31,-25.01 20.08,-29.77l0 -100.23c-11.77,-4.76 -20.08,-16.29 -20.08,-29.77 0,-1.53 0.11,-3.03 0.32,-4.5l-62.68 -36.18c-8.24,8.16 -19.57,13.21 -32.09,13.21 -25.18,0 -45.6,-20.42 -45.6,-45.6 0,-25.18 20.42,-45.6 45.6,-45.6 25.18,0 45.6,20.42 45.6,45.6 0,4.01 -0.52,7.9 -1.49,11.6l62.66 36.18c5.46,-4.27 12.32,-6.82 19.79,-6.82 7.47,0 14.33,2.55 19.79,6.82l74.98 -43.29c-0.21,-1.47 -0.32,-2.97 -0.32,-4.5 0,-17.73 14.38,-32.11 32.11,-32.11 17.73,0 32.11,14.38 32.11,32.11 0,17.73 -14.38,32.11 -32.11,32.11 -7.47,0 -14.34,-2.55 -19.79,-6.82l-74.98 43.29c0.21,1.47 0.32,2.97 0.32,4.49 0,13.48 -8.3,25.01 -20.07,29.77zm-12.03 -233.69c12.51,0 23.85,5.05 32.09,13.21l62.67 -36.18c-0.21,-1.47 -0.32,-2.97 -0.32,-4.5 0,-1.53 0.11,-3.03 0.32,-4.5l-74.98 -43.29c-5.45,4.27 -12.32,6.82 -19.79,6.82 -17.73,0 -32.11,-14.38 -32.11,-32.11 0,-17.73 14.38,-32.11 32.11,-32.11 17.73,0 32.11,14.38 32.11,32.11 0,1.53 -0.11,3.02 -0.32,4.49l74.98 43.29c5.45,-4.27 12.32,-6.82 19.79,-6.82 17.73,0 32.11,14.37 32.11,32.11 0,17.73 -14.38,32.11 -32.11,32.11 -7.47,0 -14.34,-2.55 -19.79,-6.82l-62.66 36.18c0.97,3.7 1.49,7.59 1.49,11.6 0,25.18 -20.42,45.6 -45.6,45.6 -25.18,0 -45.6,-20.42 -45.6,-45.6 0,-25.18 20.42,-45.6 45.6,-45.6zm94.17 279.95c7.47,0 14.34,2.55 19.79,6.82l74.97 -43.29c-0.21,-1.47 -0.32,-2.97 -0.32,-4.5 0,-13.48 8.31,-25.01 20.08,-29.77l0 -93.41c-11.77,-4.76 -20.08,-16.29 -20.08,-29.77 0,-17.73 14.38,-32.11 32.11,-32.11 17.73,0 32.11,14.38 32.11,32.11 0,13.48 -8.3,25.01 -20.07,29.77l0 93.41c11.77,4.76 20.07,16.29 20.07,29.77 0,17.73 -14.37,32.11 -32.11,32.11 -7.47,0 -14.34,-2.55 -19.79,-6.82l-74.97 43.29c0.21,1.47 0.32,2.97 0.32,4.5 0,17.73 -14.38,32.11 -32.11,32.11 -17.73,0 -32.11,-14.38 -32.11,-32.11 0,-17.73 14.37,-32.11 32.11,-32.11z"/>
   <path class="fil1" d="M110.83 816.29c-6.81,-3.73 -13.73,-6.81 -20.78,-9.24 -7.05,-2.43 -13.65,-3.65 -19.81,-3.65 -7.62,0 -13.61,1.54 -17.98,4.62 -4.38,3.08 -6.56,7.69 -6.56,13.85 0,4.22 1.66,7.98 4.98,11.3 3.32,3.32 7.62,6.28 12.88,8.87 5.27,2.59 10.74,4.94 16.41,7.05 5.18,1.95 10.33,4.25 15.43,6.93 5.1,2.67 9.68,5.99 13.73,9.96 4.05,3.97 7.29,8.91 9.72,14.82 2.43,5.92 3.65,13.17 3.65,21.76 0,9.07 -2.35,17.5 -7.05,25.27 -4.7,7.78 -11.59,14.06 -20.66,18.84 -9.07,4.78 -20.25,7.17 -33.54,7.17 -6.81,0 -13.73,-0.69 -20.78,-2.07 -7.05,-1.38 -13.97,-3.48 -20.78,-6.32 -6.81,-2.84 -13.37,-6.44 -19.69,-10.81l15.56 -27.47c4.21,3.08 8.79,5.79 13.73,8.15 4.94,2.35 9.92,4.17 14.95,5.46 5.02,1.3 9.64,1.95 13.85,1.95 4.21,0 8.47,-0.6 12.76,-1.82 4.29,-1.21 7.86,-3.28 10.69,-6.2 2.84,-2.92 4.25,-6.97 4.25,-12.15 0,-3.57 -1.17,-6.81 -3.52,-9.72 -2.35,-2.92 -5.51,-5.59 -9.48,-8.02 -3.97,-2.43 -8.3,-4.54 -13.01,-6.32 -5.51,-2.11 -11.18,-4.54 -17.01,-7.29 -5.83,-2.76 -11.3,-6.12 -16.41,-10.09 -5.1,-3.97 -9.24,-8.91 -12.4,-14.83 -3.16,-5.91 -4.74,-13.16 -4.74,-21.75 0,-10.37 2.31,-19.36 6.92,-26.97 4.62,-7.62 11.14,-13.65 19.56,-18.11 8.43,-4.46 18.15,-6.93 29.17,-7.41 14.42,0 26.13,1.7 35.12,5.1 8.99,3.4 17.05,7.45 24.18,12.15l-13.36 26.98zm180.33 120.79c-1.95,1.62 -5.55,3.81 -10.81,6.56 -5.27,2.76 -11.71,5.18 -19.32,7.29 -7.62,2.11 -16.04,3.08 -25.27,2.92 -14.1,-0.32 -26.69,-2.88 -37.79,-7.66 -11.1,-4.78 -20.5,-11.3 -28.19,-19.56 -7.69,-8.26 -13.57,-17.74 -17.62,-28.44 -4.05,-10.69 -6.08,-22.12 -6.08,-34.27 0,-13.61 2.07,-26.09 6.2,-37.43 4.13,-11.34 10.04,-21.14 17.74,-29.41 7.69,-8.26 16.89,-14.67 27.58,-19.2 10.69,-4.54 22.52,-6.81 35.48,-6.81 11.99,0 22.6,1.62 31.84,4.86 9.23,3.24 16.77,6.73 22.6,10.45l-13.86 33.3c-4.05,-3.08 -9.44,-6.28 -16.16,-9.6 -6.73,-3.32 -14.46,-4.98 -23.21,-4.98 -6.81,0 -13.33,1.42 -19.56,4.25 -6.24,2.84 -11.75,6.84 -16.53,12.03 -4.78,5.19 -8.54,11.22 -11.3,18.11 -2.75,6.89 -4.13,14.38 -4.13,22.48 0,8.59 1.26,16.45 3.77,23.57 2.51,7.13 6.12,13.25 10.81,18.35 4.7,5.1 10.33,9.03 16.89,11.79 6.56,2.75 13.97,4.13 22.24,4.13 9.56,0 17.74,-1.54 24.55,-4.62 6.81,-3.08 11.99,-6.32 15.56,-9.72l14.58 31.6zm185.68 -164.05l0 178.88 -35.24 0 0 -72.67 -79.96 0 0 72.67 -35.24 0 0 -178.88 35.24 0 0 72.18 79.96 0 0 -72.18 35.24 0zm35.24 89.68c0,-12.31 2.35,-23.98 7.05,-35 4.7,-11.02 11.22,-20.78 19.56,-29.28 8.34,-8.51 18.02,-15.19 29.04,-20.05 11.02,-4.86 22.84,-7.29 35.48,-7.29 12.48,0 24.22,2.43 35.24,7.29 11.02,4.86 20.78,11.55 29.29,20.05 8.51,8.51 15.15,18.27 19.93,29.28 4.78,11.02 7.17,22.68 7.17,35 0,12.64 -2.39,24.47 -7.17,35.48 -4.78,11.02 -11.42,20.7 -19.93,29.04 -8.51,8.35 -18.27,14.87 -29.29,19.56 -11.02,4.7 -22.76,7.05 -35.24,7.05 -12.64,0 -24.47,-2.35 -35.48,-7.05 -11.02,-4.7 -20.7,-11.22 -29.04,-19.56 -8.35,-8.34 -14.87,-18.02 -19.56,-29.04 -4.7,-11.02 -7.05,-22.84 -7.05,-35.48zm36.46 0c0,7.94 1.42,15.35 4.25,22.24 2.84,6.89 6.81,12.97 11.91,18.23 5.1,5.27 11.02,9.36 17.74,12.27 6.73,2.92 14.06,4.38 22,4.38 7.62,0 14.71,-1.46 21.27,-4.38 6.56,-2.91 12.27,-7.01 17.13,-12.27 4.86,-5.26 8.67,-11.34 11.42,-18.23 2.76,-6.88 4.13,-14.3 4.13,-22.24 0,-8.1 -1.42,-15.63 -4.25,-22.6 -2.84,-6.97 -6.73,-13.08 -11.67,-18.35 -4.94,-5.26 -10.73,-9.36 -17.38,-12.27 -6.64,-2.92 -13.85,-4.38 -21.63,-4.38 -7.78,0 -14.99,1.46 -21.63,4.38 -6.64,2.91 -12.48,7.01 -17.5,12.27 -5.02,5.27 -8.91,11.38 -11.66,18.35 -2.76,6.97 -4.13,14.5 -4.13,22.6zm170.61 0c0,-12.31 2.35,-23.98 7.05,-35 4.7,-11.02 11.22,-20.78 19.56,-29.28 8.34,-8.51 18.02,-15.19 29.04,-20.05 11.02,-4.86 22.84,-7.29 35.48,-7.29 12.48,0 24.22,2.43 35.24,7.29 11.02,4.86 20.78,11.55 29.29,20.05 8.51,8.51 15.15,18.27 19.93,29.28 4.78,11.02 7.17,22.68 7.17,35 0,12.64 -2.39,24.47 -7.17,35.48 -4.78,11.02 -11.42,20.7 -19.93,29.04 -8.51,8.35 -18.27,14.87 -29.29,19.56 -11.02,4.7 -22.76,7.05 -35.24,7.05 -12.64,0 -24.47,-2.35 -35.48,-7.05 -11.02,-4.7 -20.7,-11.22 -29.04,-19.56 -8.35,-8.34 -14.87,-18.02 -19.56,-29.04 -4.7,-11.02 -7.05,-22.84 -7.05,-35.48zm36.46 0c0,7.94 1.42,15.35 4.25,22.24 2.84,6.89 6.81,12.97 11.91,18.23 5.1,5.27 11.02,9.36 17.74,12.27 6.73,2.92 14.06,4.38 22,4.38 7.62,0 14.71,-1.46 21.27,-4.38 6.56,-2.91 12.27,-7.01 17.13,-12.27 4.86,-5.26 8.67,-11.34 11.42,-18.23 2.76,-6.88 4.13,-14.3 4.13,-22.24 0,-8.1 -1.42,-15.63 -4.25,-22.6 -2.84,-6.97 -6.73,-13.08 -11.67,-18.35 -4.94,-5.26 -10.73,-9.36 -17.38,-12.27 -6.64,-2.92 -13.85,-4.38 -21.63,-4.38 -7.78,0 -14.99,1.46 -21.63,4.38 -6.64,2.91 -12.48,7.01 -17.5,12.27 -5.02,5.27 -8.91,11.38 -11.66,18.35 -2.76,6.97 -4.13,14.5 -4.13,22.6zm181.55 -89.68l35.24 0 0 144.85 84.09 0 0 34.03 -119.33 0 0 -178.88zm155.79 0l35.24 0 0 144.85 84.09 0 0 34.03 -119.33 0 0 -178.88zm155.79 0l122.01 0 0 34.03 -86.76 0 0 38.16 76.8 0 0 34.03 -76.8 0 0 38.64 90.17 0 0 34.03 -125.41 0 0 -178.88zm257.38 43.26c-6.81,-3.73 -13.73,-6.81 -20.78,-9.24 -7.05,-2.43 -13.65,-3.65 -19.81,-3.65 -7.62,0 -13.61,1.54 -17.98,4.62 -4.38,3.08 -6.56,7.69 -6.56,13.85 0,4.22 1.66,7.98 4.98,11.3 3.32,3.32 7.62,6.28 12.88,8.87 5.27,2.59 10.74,4.94 16.41,7.05 5.18,1.95 10.33,4.25 15.43,6.93 5.1,2.67 9.68,5.99 13.73,9.96 4.05,3.97 7.29,8.91 9.72,14.82 2.43,5.92 3.65,13.17 3.65,21.76 0,9.07 -2.35,17.5 -7.05,25.27 -4.7,7.78 -11.59,14.06 -20.66,18.84 -9.07,4.78 -20.25,7.17 -33.54,7.17 -6.81,0 -13.73,-0.69 -20.78,-2.07 -7.05,-1.38 -13.97,-3.48 -20.78,-6.32 -6.81,-2.84 -13.37,-6.44 -19.69,-10.81l15.56 -27.47c4.21,3.08 8.79,5.79 13.73,8.15 4.94,2.35 9.92,4.17 14.95,5.46 5.02,1.3 9.64,1.95 13.85,1.95 4.21,0 8.47,-0.6 12.76,-1.82 4.29,-1.21 7.86,-3.28 10.69,-6.2 2.84,-2.92 4.25,-6.97 4.25,-12.15 0,-3.57 -1.17,-6.81 -3.52,-9.72 -2.35,-2.92 -5.51,-5.59 -9.48,-8.02 -3.97,-2.43 -8.3,-4.54 -13.01,-6.32 -5.51,-2.11 -11.18,-4.54 -17.01,-7.29 -5.83,-2.76 -11.3,-6.12 -16.41,-10.09 -5.1,-3.97 -9.24,-8.91 -12.4,-14.83 -3.16,-5.91 -4.74,-13.16 -4.74,-21.75 0,-10.37 2.31,-19.36 6.92,-26.97 4.62,-7.62 11.14,-13.65 19.56,-18.11 8.43,-4.46 18.15,-6.93 29.17,-7.41 14.42,0 26.13,1.7 35.12,5.1 8.99,3.4 17.05,7.45 24.18,12.15l-13.36 26.98zm141.69 0c-6.81,-3.73 -13.73,-6.81 -20.78,-9.24 -7.05,-2.43 -13.65,-3.65 -19.81,-3.65 -7.62,0 -13.61,1.54 -17.98,4.62 -4.38,3.08 -6.56,7.69 -6.56,13.85 0,4.22 1.66,7.98 4.98,11.3 3.32,3.32 7.62,6.28 12.88,8.87 5.27,2.59 10.74,4.94 16.41,7.05 5.18,1.95 10.33,4.25 15.43,6.93 5.1,2.67 9.68,5.99 13.73,9.96 4.05,3.97 7.29,8.91 9.72,14.82 2.43,5.92 3.65,13.17 3.65,21.76 0,9.07 -2.35,17.5 -7.05,25.27 -4.7,7.78 -11.59,14.06 -20.66,18.84 -9.07,4.78 -20.25,7.17 -33.54,7.17 -6.81,0 -13.73,-0.69 -20.78,-2.07 -7.05,-1.38 -13.97,-3.48 -20.78,-6.32 -6.81,-2.84 -13.37,-6.44 -19.69,-10.81l15.56 -27.47c4.21,3.08 8.79,5.79 13.73,8.15 4.94,2.35 9.92,4.17 14.95,5.46 5.02,1.3 9.64,1.95 13.85,1.95 4.21,0 8.47,-0.6 12.76,-1.82 4.29,-1.21 7.86,-3.28 10.69,-6.2 2.84,-2.92 4.25,-6.97 4.25,-12.15 0,-3.57 -1.17,-6.81 -3.52,-9.72 -2.35,-2.92 -5.51,-5.59 -9.48,-8.02 -3.97,-2.43 -8.3,-4.54 -13.01,-6.32 -5.51,-2.11 -11.18,-4.54 -17.01,-7.29 -5.83,-2.76 -11.3,-6.12 -16.41,-10.09 -5.1,-3.97 -9.24,-8.91 -12.4,-14.83 -3.16,-5.91 -4.74,-13.16 -4.74,-21.75 0,-10.37 2.31,-19.36 6.92,-26.97 4.62,-7.62 11.14,-13.65 19.56,-18.11 8.43,-4.46 18.15,-6.93 29.17,-7.41 14.42,0 26.13,1.7 35.12,5.1 8.99,3.4 17.05,7.45 24.18,12.15l-13.36 26.98z"/>
  </g>
 </g>
</svg>
