<?xml version="1.0" encoding="UTF-8"?>
<!DOCTYPE svg PUBLIC "-//W3C//DTD SVG 1.1//EN" "http://www.w3.org/Graphics/SVG/1.1/DTD/svg11.dtd">
<!-- Creator: CorelDRAW -->
<svg xmlns="http://www.w3.org/2000/svg" xml:space="preserve" width="83.1922mm" height="16.9029mm" version="1.1" style="shape-rendering:geometricPrecision; text-rendering:geometricPrecision; image-rendering:optimizeQuality; fill-rule:evenodd; clip-rule:evenodd"
viewBox="0 0 3008.63 611.29"
 xmlns:xlink="http://www.w3.org/1999/xlink"
 xmlns:xodm="http://www.corel.com/coreldraw/odm/2003">
 <defs>
  <style type="text/css">
   <![CDATA[
    .fil1 {fill:#304663}
    .fil0 {fill:#304663;fill-rule:nonzero}
    .fil3 {fill:url(#id0)}
    .fil2 {fill:url(#id1)}
   ]]>
  </style>
  <linearGradient id="id0" gradientUnits="userSpaceOnUse" x1="485.17" y1="85.53" x2="176.44" y2="397.8">
   <stop offset="0" style="stop-opacity:1; stop-color:#FECC09"/>
   <stop offset="1" style="stop-opacity:1; stop-color:#E63C24"/>
  </linearGradient>
  <linearGradient id="id1" gradientUnits="userSpaceOnUse" x1="339.25" y1="428.47" x2="-8.44" y2="231.75">
   <stop offset="0" style="stop-opacity:1; stop-color:#566F8D"/>
   <stop offset="1" style="stop-opacity:1; stop-color:#304663"/>
  </linearGradient>
 </defs>
 <g id="Layer_x0020_1">
  <metadata id="CorelCorpID_0Corel-Layer"/>
  <g id="_2466372763984">
   <path class="fil0" d="M920.22 246.98c-9.17,-5.02 -18.5,-9.17 -27.99,-12.44 -9.49,-3.27 -18.39,-4.91 -26.68,-4.91 -10.26,0 -18.33,2.07 -24.23,6.22 -5.89,4.15 -8.84,10.37 -8.84,18.66 0,5.67 2.24,10.75 6.71,15.23 4.47,4.47 10.26,8.46 17.35,11.95 7.09,3.49 14.46,6.66 22.1,9.49 6.98,2.62 13.92,5.73 20.79,9.33 6.87,3.6 13.04,8.08 18.49,13.42 5.46,5.35 9.82,12 13.1,19.97 3.27,7.97 4.91,17.73 4.91,29.3 0,12.22 -3.16,23.57 -9.49,34.05 -6.33,10.48 -15.61,18.93 -27.83,25.37 -12.22,6.44 -27.28,9.66 -45.18,9.66 -9.17,0 -18.5,-0.93 -27.99,-2.78 -9.5,-1.86 -18.83,-4.69 -27.99,-8.51 -9.17,-3.82 -18.01,-8.68 -26.52,-14.57l20.95 -37c5.67,4.15 11.84,7.8 18.49,10.97 6.66,3.16 13.37,5.62 20.14,7.37 6.77,1.74 12.99,2.62 18.66,2.62 5.67,0 11.4,-0.82 17.19,-2.46 5.79,-1.64 10.59,-4.42 14.41,-8.35 3.82,-3.93 5.73,-9.38 5.73,-16.37 0,-4.8 -1.58,-9.17 -4.75,-13.1 -3.16,-3.93 -7.42,-7.53 -12.77,-10.8 -5.35,-3.28 -11.19,-6.11 -17.51,-8.51 -7.42,-2.84 -15.06,-6.11 -22.92,-9.82 -7.86,-3.71 -15.23,-8.24 -22.1,-13.59 -6.87,-5.35 -12.44,-12 -16.7,-19.97 -4.26,-7.97 -6.38,-17.74 -6.38,-29.3 0,-13.97 3.11,-26.08 9.33,-36.34 6.22,-10.26 15,-18.39 26.35,-24.39 11.35,-6 24.45,-9.33 39.29,-9.99 19.42,0 35.19,2.29 47.31,6.87 12.11,4.58 22.97,10.04 32.57,16.37l-18.01 36.34zm242.92 162.71c-2.62,2.18 -7.48,5.13 -14.57,8.84 -7.1,3.71 -15.77,6.98 -26.03,9.82 -10.26,2.84 -21.61,4.15 -34.05,3.93 -18.99,-0.43 -35.96,-3.87 -50.91,-10.31 -14.95,-6.44 -27.61,-15.23 -37.98,-26.36 -10.37,-11.13 -18.28,-23.9 -23.73,-38.3 -5.46,-14.41 -8.19,-29.79 -8.19,-46.16 0,-18.33 2.78,-35.14 8.35,-50.42 5.57,-15.28 13.53,-28.48 23.9,-39.61 10.37,-11.13 22.75,-19.75 37.16,-25.86 14.4,-6.11 30.34,-9.17 47.8,-9.17 16.15,0 30.45,2.18 42.89,6.55 12.44,4.37 22.59,9.06 30.45,14.08l-18.66 44.85c-5.46,-4.14 -12.71,-8.46 -21.77,-12.93 -9.06,-4.47 -19.48,-6.71 -31.26,-6.71 -9.17,0 -17.95,1.91 -26.36,5.73 -8.4,3.82 -15.82,9.22 -22.26,16.21 -6.44,6.98 -11.51,15.11 -15.22,24.39 -3.71,9.28 -5.57,19.37 -5.57,30.28 0,11.57 1.69,22.15 5.07,31.76 3.39,9.61 8.24,17.84 14.57,24.72 6.33,6.87 13.91,12.17 22.75,15.88 8.84,3.71 18.82,5.57 29.96,5.57 12.88,0 23.9,-2.07 33.07,-6.22 9.16,-4.14 16.15,-8.51 20.95,-13.1l19.64 42.56zm250.12 -220.99l0 240.96 -47.47 0 0 -97.89 -107.71 0 0 97.89 -47.47 0 0 -240.96 47.47 0 0 97.24 107.71 0 0 -97.24 47.47 0zm47.47 120.81c0,-16.59 3.16,-32.3 9.5,-47.14 6.33,-14.84 15.11,-27.99 26.35,-39.45 11.24,-11.46 24.28,-20.46 39.12,-27.01 14.84,-6.55 30.78,-9.82 47.8,-9.82 16.81,0 32.63,3.27 47.47,9.82 14.84,6.55 27.99,15.55 39.45,27.01 11.46,11.46 20.41,24.61 26.85,39.45 6.44,14.84 9.66,30.56 9.66,47.14 0,17.02 -3.22,32.96 -9.66,47.8 -6.44,14.84 -15.39,27.88 -26.85,39.12 -11.46,11.24 -24.61,20.02 -39.45,26.35 -14.84,6.33 -30.66,9.49 -47.47,9.49 -17.02,0 -32.96,-3.16 -47.8,-9.49 -14.84,-6.33 -27.88,-15.11 -39.12,-26.35 -11.24,-11.24 -20.02,-24.28 -26.35,-39.12 -6.33,-14.84 -9.5,-30.78 -9.5,-47.8zm49.11 0c0,10.69 1.91,20.68 5.73,29.96 3.82,9.28 9.16,17.46 16.04,24.55 6.88,7.1 14.84,12.61 23.9,16.53 9.06,3.93 18.93,5.89 29.63,5.89 10.26,0 19.8,-1.96 28.65,-5.89 8.84,-3.93 16.53,-9.44 23.08,-16.53 6.55,-7.09 11.68,-15.28 15.39,-24.55 3.71,-9.28 5.57,-19.26 5.57,-29.96 0,-10.91 -1.91,-21.06 -5.73,-30.45 -3.82,-9.39 -9.06,-17.63 -15.71,-24.72 -6.66,-7.1 -14.46,-12.6 -23.41,-16.53 -8.95,-3.93 -18.66,-5.89 -29.13,-5.89 -10.48,0 -20.19,1.96 -29.14,5.89 -8.95,3.93 -16.81,9.44 -23.57,16.53 -6.77,7.09 -12.01,15.33 -15.72,24.72 -3.71,9.38 -5.57,19.53 -5.57,30.45zm229.83 0c0,-16.59 3.16,-32.3 9.5,-47.14 6.33,-14.84 15.11,-27.99 26.35,-39.45 11.24,-11.46 24.28,-20.46 39.12,-27.01 14.84,-6.55 30.78,-9.82 47.8,-9.82 16.81,0 32.63,3.27 47.47,9.82 14.84,6.55 27.99,15.55 39.45,27.01 11.46,11.46 20.41,24.61 26.85,39.45 6.44,14.84 9.66,30.56 9.66,47.14 0,17.02 -3.22,32.96 -9.66,47.8 -6.44,14.84 -15.39,27.88 -26.85,39.12 -11.46,11.24 -24.61,20.02 -39.45,26.35 -14.84,6.33 -30.66,9.49 -47.47,9.49 -17.02,0 -32.96,-3.16 -47.8,-9.49 -14.84,-6.33 -27.88,-15.11 -39.12,-26.35 -11.24,-11.24 -20.02,-24.28 -26.35,-39.12 -6.33,-14.84 -9.5,-30.78 -9.5,-47.8zm49.11 0c0,10.69 1.91,20.68 5.73,29.96 3.82,9.28 9.16,17.46 16.04,24.55 6.88,7.1 14.84,12.61 23.9,16.53 9.06,3.93 18.93,5.89 29.63,5.89 10.26,0 19.8,-1.96 28.65,-5.89 8.84,-3.93 16.53,-9.44 23.08,-16.53 6.55,-7.09 11.68,-15.28 15.39,-24.55 3.71,-9.28 5.57,-19.26 5.57,-29.96 0,-10.91 -1.91,-21.06 -5.73,-30.45 -3.82,-9.39 -9.06,-17.63 -15.71,-24.72 -6.66,-7.1 -14.46,-12.6 -23.41,-16.53 -8.95,-3.93 -18.66,-5.89 -29.13,-5.89 -10.48,0 -20.19,1.96 -29.14,5.89 -8.95,3.93 -16.81,9.44 -23.57,16.53 -6.77,7.09 -12.01,15.33 -15.72,24.72 -3.71,9.38 -5.57,19.53 -5.57,30.45zm244.56 -120.81l47.47 0 0 195.12 113.28 0 0 45.84 -160.75 0 0 -240.96zm209.86 0l47.47 0 0 195.12 113.28 0 0 45.84 -160.75 0 0 -240.96zm209.86 0l164.35 0 0 45.84 -116.88 0 0 51.4 103.46 0 0 45.83 -103.46 0 0 52.06 121.46 0 0 45.84 -168.93 0 0 -240.96zm346.71 58.28c-9.17,-5.02 -18.5,-9.17 -27.99,-12.44 -9.49,-3.27 -18.39,-4.91 -26.68,-4.91 -10.26,0 -18.33,2.07 -24.23,6.22 -5.89,4.15 -8.84,10.37 -8.84,18.66 0,5.67 2.24,10.75 6.71,15.23 4.47,4.47 10.26,8.46 17.35,11.95 7.09,3.49 14.46,6.66 22.1,9.49 6.98,2.62 13.92,5.73 20.79,9.33 6.87,3.6 13.04,8.08 18.49,13.42 5.46,5.35 9.82,12 13.1,19.97 3.27,7.97 4.91,17.73 4.91,29.3 0,12.22 -3.16,23.57 -9.49,34.05 -6.33,10.48 -15.61,18.93 -27.83,25.37 -12.22,6.44 -27.28,9.66 -45.18,9.66 -9.17,0 -18.5,-0.93 -27.99,-2.78 -9.5,-1.86 -18.83,-4.69 -27.99,-8.51 -9.17,-3.82 -18.01,-8.68 -26.52,-14.57l20.95 -37c5.67,4.15 11.84,7.8 18.49,10.97 6.66,3.16 13.37,5.62 20.14,7.37 6.77,1.74 12.99,2.62 18.66,2.62 5.67,0 11.4,-0.82 17.19,-2.46 5.79,-1.64 10.59,-4.42 14.41,-8.35 3.82,-3.93 5.73,-9.38 5.73,-16.37 0,-4.8 -1.58,-9.17 -4.75,-13.1 -3.16,-3.93 -7.42,-7.53 -12.77,-10.8 -5.35,-3.28 -11.19,-6.11 -17.51,-8.51 -7.42,-2.84 -15.06,-6.11 -22.92,-9.82 -7.86,-3.71 -15.23,-8.24 -22.1,-13.59 -6.87,-5.35 -12.44,-12 -16.7,-19.97 -4.26,-7.97 -6.38,-17.74 -6.38,-29.3 0,-13.97 3.11,-26.08 9.33,-36.34 6.22,-10.26 15,-18.39 26.35,-24.39 11.35,-6 24.45,-9.33 39.29,-9.99 19.42,0 35.19,2.29 47.31,6.87 12.11,4.58 22.97,10.04 32.57,16.37l-18.01 36.34zm190.87 0c-9.17,-5.02 -18.5,-9.17 -27.99,-12.44 -9.49,-3.27 -18.39,-4.91 -26.68,-4.91 -10.26,0 -18.33,2.07 -24.23,6.22 -5.89,4.15 -8.84,10.37 -8.84,18.66 0,5.67 2.24,10.75 6.71,15.23 4.47,4.47 10.26,8.46 17.35,11.95 7.09,3.49 14.46,6.66 22.1,9.49 6.98,2.62 13.92,5.73 20.79,9.33 6.87,3.6 13.04,8.08 18.49,13.42 5.46,5.35 9.82,12 13.1,19.97 3.27,7.97 4.91,17.73 4.91,29.3 0,12.22 -3.16,23.57 -9.49,34.05 -6.33,10.48 -15.61,18.93 -27.83,25.37 -12.22,6.44 -27.28,9.66 -45.18,9.66 -9.17,0 -18.5,-0.93 -27.99,-2.78 -9.5,-1.86 -18.83,-4.69 -27.99,-8.51 -9.17,-3.82 -18.01,-8.68 -26.52,-14.57l20.95 -37c5.67,4.15 11.84,7.8 18.49,10.97 6.66,3.16 13.37,5.62 20.14,7.37 6.77,1.74 12.99,2.62 18.66,2.62 5.67,0 11.4,-0.82 17.19,-2.46 5.79,-1.64 10.59,-4.42 14.41,-8.35 3.82,-3.93 5.73,-9.38 5.73,-16.37 0,-4.8 -1.58,-9.17 -4.75,-13.1 -3.16,-3.93 -7.42,-7.53 -12.77,-10.8 -5.35,-3.28 -11.19,-6.11 -17.51,-8.51 -7.42,-2.84 -15.06,-6.11 -22.92,-9.82 -7.86,-3.71 -15.23,-8.24 -22.1,-13.59 -6.87,-5.35 -12.44,-12 -16.7,-19.97 -4.26,-7.97 -6.38,-17.74 -6.38,-29.3 0,-13.97 3.11,-26.08 9.33,-36.34 6.22,-10.26 15,-18.39 26.35,-24.39 11.35,-6 24.45,-9.33 39.29,-9.99 19.42,0 35.19,2.29 47.31,6.87 12.11,4.58 22.97,10.04 32.57,16.37l-18.01 36.34z"/>
   <path class="fil1" d="M330.81 534.14c25.52,-24.15 79.74,-32.05 108.18,-32.05l158.68 0 0 -421.19c0,-17.58 14.39,-31.97 31.97,-31.97 17.59,0 31.97,14.39 31.97,31.97l0 482.25 -221.38 0c-30.53,0 -83.03,12.82 -109.43,48.15l-9.46 -67.35 9.46 -9.8z"/>
   <path class="fil2" d="M330.81 611.29c-34.2,-37.4 -69.58,-48.15 -120.45,-48.15l-210.36 0 0 -514.22 187.17 0c17.59,0 31.97,14.39 31.97,31.97 0,17.59 -14.4,31.97 -31.97,31.97l-123.23 0 0 389.22 154.82 0c58.41,0 93.16,16.32 112.04,32.05l0 77.15z"/>
   <path class="fil3" d="M304.92 335.06l0 91.67c10.77,4.36 18.36,14.91 18.36,27.23 0,16.22 -13.15,29.37 -29.37,29.37 -16.22,0 -29.37,-13.15 -29.37,-29.37 0,-12.32 7.6,-22.87 18.36,-27.23l0 -91.67c-10.77,-4.35 -18.36,-14.9 -18.36,-27.23 0,-1.4 0.1,-2.77 0.29,-4.11l-57.32 -33.09c-7.54,7.46 -17.9,12.08 -29.35,12.08 -23.03,0 -41.71,-18.67 -41.71,-41.71 0,-23.03 18.68,-41.71 41.71,-41.71 23.03,0 41.71,18.68 41.71,41.71 0,3.67 -0.47,7.22 -1.36,10.61l57.31 33.09c4.99,-3.91 11.27,-6.24 18.1,-6.24 6.83,0 13.11,2.33 18.1,6.24l68.58 -39.59c-0.19,-1.35 -0.29,-2.72 -0.29,-4.11 0,-16.22 13.15,-29.37 29.37,-29.37 16.22,0 29.37,13.15 29.37,29.37 0,16.22 -13.15,29.37 -29.37,29.37 -6.83,0 -13.11,-2.33 -18.1,-6.24l-68.58 39.59c0.19,1.35 0.29,2.71 0.29,4.11 0,12.33 -7.59,22.88 -18.36,27.23zm-11 -213.74c11.45,0 21.81,4.62 29.35,12.08l57.32 -33.09c-0.19,-1.34 -0.29,-2.72 -0.29,-4.11 0,-1.4 0.1,-2.77 0.29,-4.11l-68.58 -39.59c-4.99,3.91 -11.27,6.24 -18.1,6.24 -16.22,0 -29.37,-13.15 -29.37,-29.37 0,-16.22 13.15,-29.37 29.37,-29.37 16.22,0 29.37,13.15 29.37,29.37 0,1.4 -0.1,2.77 -0.29,4.11l68.58 39.59c4.99,-3.91 11.27,-6.24 18.1,-6.24 16.22,0 29.37,13.15 29.37,29.37 0,16.22 -13.15,29.37 -29.37,29.37 -6.83,0 -13.12,-2.33 -18.1,-6.24l-57.31 33.09c0.89,3.39 1.36,6.94 1.36,10.61 0,23.03 -18.68,41.71 -41.71,41.71 -23.03,0 -41.71,-18.68 -41.71,-41.71 0,-23.03 18.67,-41.71 41.71,-41.71zm86.13 256.04c6.83,0 13.11,2.33 18.1,6.24l68.57 -39.59c-0.19,-1.34 -0.29,-2.72 -0.29,-4.11 0,-12.33 7.6,-22.88 18.36,-27.23l0 -85.43c-10.77,-4.35 -18.36,-14.9 -18.36,-27.23 0,-16.22 13.15,-29.37 29.37,-29.37 16.22,0 29.37,13.15 29.37,29.37 0,12.33 -7.59,22.88 -18.36,27.23l0 85.43c10.77,4.35 18.36,14.9 18.36,27.23 0,16.22 -13.15,29.37 -29.37,29.37 -6.83,0 -13.11,-2.33 -18.1,-6.24l-68.57 39.59c0.19,1.34 0.29,2.72 0.29,4.11 0,16.22 -13.15,29.37 -29.37,29.37 -16.22,0 -29.37,-13.15 -29.37,-29.37 0,-16.22 13.15,-29.37 29.37,-29.37z"/>
  </g>
 </g>
</svg>
