<svg version="1.2" xmlns="http://www.w3.org/2000/svg" viewBox="0 0 1920 1080" width="1920" height="1080">
	<title>scene_2-ai</title>
	<style>
		.s0 { fill: #e58f80 } 
		.s1 { fill: #3c251d } 
		.s2 { fill: #de5a5a } 
		.s3 { fill: #763424 } 
		.s4 { fill: none;stroke: #d05066;stroke-linecap: round;stroke-linejoin: round;stroke-width: .4 } 
		.s5 { fill: #7a4029 } 
		.s6 { fill: #ffffff } 
		.s7 { fill: #162053 } 
		.s8 { fill: #222d63 } 
		.s9 { fill: #f9c200 } 
	</style>
	<g id="Слой 2">
		<g id="&lt;Group&gt;">
			<g id="&lt;Group&gt;">
				<g id="&lt;Group&gt;">
					<g id="&lt;Group&gt;">
						<path id="&lt;Path&gt;" class="s0" d="m959 345.8l34.3-22.8-3.1 53.2c-40.3 11.8-61.9-1.5-61.9-1.5l2.7-26.4z"/>
					</g>
					<g id="&lt;Group&gt;">
						<path id="&lt;Path&gt;" class="s1" d="m937 357.7l1-9.4 28-2.5 11.5-7.6h7c-13.9 20.3-40.8 19.9-47.5 19.5z"/>
					</g>
					<g id="&lt;Group&gt;">
						<g id="&lt;Group&gt;">
							<path id="&lt;Path&gt;" class="s2" d="m928.6 316.9c0 0-14 7.6-24.8 2.4-10.8-5.2-7.6-27.3 3-30.3 10.6-2.9 21.9 10.6 21.9 10.6z"/>
						</g>
						<g id="&lt;Group&gt;">
							<path id="&lt;Path&gt;" class="s1" d="m907.2 314.6c-0.1-0.1-7-3.8-4.3-11.9 1.2-3.4 2.7-5.4 4.7-6.3 2.7-1.2 6-0.7 11.7 1.6 0.2 0.1 0.4 0.4 0.3 0.6-0.1 0.2-0.4 0.4-0.6 0.3-5.4-2.2-8.7-2.7-11-1.7-1.8 0.9-3.2 2.7-4.2 5.8-2.5 7.3 3.6 10.6 3.8 10.8 0.3 0.1 0.3 0.4 0.2 0.6-0.1 0.1-0.2 0.2-0.4 0.2q-0.1 0-0.2 0z"/>
						</g>
						<g id="&lt;Group&gt;">
							<path id="&lt;Path&gt;" class="s3" d="m932.2 241.8l-11.4 12.9c0 0-2.8 46-6 30.1-3.1-15.8-4-33.7 1.9-41.6z"/>
						</g>
						<g id="&lt;Group&gt;">
							<path id="&lt;Path&gt;" class="s0" d="m978.9 224.5q1 0.2 1.9 0.4c25.8 6.4 41.7 27.6 34.4 53.2l-15.6 55.1c0 0-30 27.6-63.7 19.3-33.8-8.3-25.4-45.1-22.4-62.6 2.9-17.6-0.3-30.4 3-38.8 0 0 11.7-37.2 62.4-26.6z"/>
						</g>
						<g id="&lt;Group&gt;">
							<path id="&lt;Path&gt;" class="s3" d="m994.3 307.9c0 0 3.3-7.2 3.8-25 0.6-17.8-0.2-32.6-0.2-32.6l28.3 9.3-10.4 41.6z"/>
						</g>
						<g id="&lt;Group&gt;">
							<path id="&lt;Path&gt;" class="s0" d="m998.8 307.7c0 0 12.1-12.8 22.5-9.3 10.5 3.6 12.2 25.9 1.1 30.4-11 4.6-24.5-4-24.5-4z"/>
						</g>
						<g id="&lt;Group&gt;">
							<path id="&lt;Path&gt;" class="s1" d="m1018.7 323.7c-0.1-0.3 0-0.5 0.3-0.6 0.2-0.2 6.5-3.1 4.5-10.6-0.9-3.1-2.1-5-3.9-6-2.3-1.2-5.6-0.9-11 1-0.3 0.1-0.5-0.1-0.6-0.3-0.1-0.2 0-0.5 0.3-0.6 5.8-2 9.2-2.2 11.7-0.9 2 1.1 3.4 3.2 4.3 6.6 2.3 8.2-4.9 11.6-5 11.6q0 0-0.2 0c-0.1 0-0.3-0.1-0.4-0.2z"/>
						</g>
						<g id="&lt;Group&gt;">
							<path id="&lt;Path&gt;" class="s1" d="m979.8 345.8c-0.1-0.2 0-0.5 0.2-0.6 0.1-0.1 10.7-6 15.2-10.6 0.2-0.2 0.5-0.2 0.6 0 0.2 0.2 0.2 0.4 0.1 0.6-4.6 4.7-15 10.5-15.5 10.8q-0.1 0-0.2 0c-0.2 0-0.3-0.1-0.4-0.2z"/>
						</g>
						<g id="&lt;Group&gt;">
							<path id="&lt;Path&gt;" class="s1" d="m940.7 348.1c0 0-5.1-5.3-1.5-9.7 0.1-0.2 0.4-0.3 0.6-0.1 0.2 0.2 0.2 0.4 0.1 0.6-3.1 3.8 1.3 8.4 1.5 8.6 0.2 0.2 0.2 0.5 0 0.6q-0.2 0.2-0.4 0.2-0.1 0-0.3-0.2z"/>
						</g>
						<g id="&lt;Group&gt;">
							<path id="&lt;Path&gt;" class="s4" d=""/>
						</g>
						<g id="&lt;Group&gt;">
							<path id="&lt;Path&gt;" class="s3" d="m999.4 272c-4.8-36-7.7-18.4-29.4-16.8-21.7 1.5-19.6-4.5-31.1-9.3-11.4-4.8-25 11.9-25 11.9 0 0 2.9-4-7.4-10.6-10.4-6.6-7.7-26.6 2.5-37.1 10.1-10.6 19.8 0.6 33.5 4.6 13.7 4.1 16.8-21.3 36.1-20.4 19.2 0.9 16.8 23.9 32 28.9 15.1 4.9 13.1 9.3 21.5 18.6 6.2 6.9-7.1 22.5-9.1 27.7z"/>
						</g>
						<g id="&lt;Group&gt;">
							<path id="&lt;Path&gt;" class="s3" d="m953.8 260c-5.1-2.2-8.3-4.6-10.8-6.5-3.8-2.8-6-4.5-10.8-3.2-3.1 0.8-5.3 2.3-7.4 3.9-4 2.8-7.6 5.4-14.9 2.4-4.6-1.9-8.2-6-10.2-11.6-2.6-7.4-2-16.1 1.7-22.8l1.2 0.7c-3.4 6.3-4 14.6-1.5 21.7 1.8 5.2 5.1 8.9 9.3 10.7 6.6 2.6 9.8 0.4 13.5-2.3 2.3-1.6 4.6-3.3 7.9-4.1 5.5-1.4 8.2 0.6 12 3.5 2.5 1.8 5.6 4.2 10.5 6.3 9.6 4.1 18.1-0.8 28-6.3 2.4-1.4 4.9-2.8 7.6-4.2l0.6 1.3c-2.6 1.3-5.1 2.7-7.5 4.1-7 4-13.8 7.8-20.8 8-2.8 0.1-5.6-0.4-8.4-1.6z"/>
						</g>
						<g id="&lt;Group&gt;">
							<path id="&lt;Path&gt;" class="s1" d="m982.7 233.9q-1 0-2 0.2c-3.3 0.4-5.8 2.4-8.3 4.3-4.5 3.5-9.2 7.2-18.2 1.5-4.6-2.9-7.9-5.9-10.8-8.6-5.7-5.2-9.8-9-19.2-7.6q-7.9 1.1-11.4-2.4c-3.1-3-2.5-7.4-2.4-7.6l1.4 0.2c0 0-0.5 3.9 2 6.4 2 2 5.4 2.7 10.2 2 10.1-1.5 14.6 2.7 20.4 7.9 2.9 2.7 6.1 5.6 10.5 8.5 8.2 5.1 12.1 2.1 16.6-1.4 2.7-2.1 5.4-4.2 9.1-4.7 9.9-1.1 14.1 4.2 19.6 16.5l-1.3 0.6c-5.2-11.5-8.6-16-16.2-15.8z"/>
						</g>
						<g id="&lt;Group&gt;">
							<path id="&lt;Path&gt;" class="s1" d="m945.6 311.1c-2.5-1.8-5.2-6-5.2-11.1 0.1-2.9 1.5-4.6 3.5-7 1.2-1.5 2.8-3.4 4.4-6.1 0.1-0.3 0.5-0.4 0.8-0.2 0.3 0.1 0.4 0.5 0.2 0.8-1.6 2.8-3.2 4.7-4.5 6.3-1.9 2.2-3.1 3.7-3.2 6.2 0 4.5 2.3 8.5 4.7 10.1 0.3 0.2 0.3 0.6 0.2 0.8-0.2 0.2-0.4 0.3-0.5 0.3q-0.2 0-0.4-0.1z"/>
						</g>
						<g id="&lt;Group&gt;">
							<path id="&lt;Path&gt;" class="s1" d="m968.7 294.2c0-2.8 1-5.1 2.2-5.1 1.1 0 2 2.4 2 5.2-0.1 2.9-1.1 5.2-2.2 5.2-1.2-0.1-2.1-2.4-2-5.3z"/>
						</g>
						<g id="&lt;Group&gt;">
							<path id="&lt;Path&gt;" class="s1" d="m929.2 292c0-2.8 1-5.1 2.2-5.1 1.1 0 2 2.3 2 5.2-0.1 2.9-1.1 5.2-2.2 5.2-1.2-0.1-2.1-2.4-2-5.3z"/>
						</g>
						<g id="&lt;Group&gt;">
							<g id="&lt;Group&gt;">
								<path id="&lt;Path&gt;" class="s5" d="m965.8 274.2c4.6-1.6 9.6 0.2 14.1 2 1.2 0.5 2.4 1 3.4 1.8 1 0.8 1.8 2 1.8 3.3 0.1 1.6-1.1 3.1-2.6 3.5-0.9 0.2-1.9 0.1-2.8-0.1-5.1-1.1-9.9-3.1-14.2-6-0.9-0.6-1.8-1.4-1.7-2.4 0-1 1.1-1.7 2-2.1z"/>
							</g>
						</g>
						<g id="&lt;Group&gt;">
							<g id="&lt;Group&gt;">
								<path id="&lt;Path&gt;" class="s5" d="m921.2 278.1c-0.5-0.8-0.4-1.8 0-2.6 1.6-3.4 6.7-4.1 9.9-4.7 1.5-0.2 2.9-0.4 4.4-0.2 1.8 0.2 3.6 1.3 4.3 3.1 0.2 2.8-3.8 2.7-5.7 3.1-2.1 0.4-5.7 2.6-8.7 3-1.7 0.3-3.3-0.1-4.2-1.7z"/>
							</g>
						</g>
						<g id="&lt;Group&gt;">
							<path id="&lt;Path&gt;" class="s1" d="m966.9 301.2c-0.2-0.2-0.2-0.4 0-0.6 0.2-0.2 0.4-0.2 0.6 0 0 0 2 2 6.1 1.8 0.2 0 0.5 0.2 0.5 0.4 0 0.3-0.2 0.5-0.5 0.5q-0.4 0-0.8 0c-4-0.1-5.8-2-5.9-2.1z"/>
						</g>
						<g id="&lt;Group&gt;">
							<path id="&lt;Path&gt;" class="s1" d="m927.8 301.5c0-0.3 0.2-0.5 0.5-0.4 3.3 0 4.9-1.2 5-1.2 0.2-0.2 0.5-0.1 0.6 0.1 0.2 0.2 0.1 0.4-0.1 0.6 0 0.1-1.8 1.4-5.5 1.4-0.3-0.1-0.5-0.3-0.5-0.5z"/>
						</g>
						<g id="&lt;Group&gt;">
							<path id="&lt;Path&gt;" class="s6" d="m953.4 331.5c-7.4-0.1-14.7 2.5-15.8 0.4-0.1-0.2-0.2-0.6-0.7-1.5-0.8-1.7-1.4-2-1.4-2.4 0-3.7 11-6.4 18.2-3.9 8.8 3 11.9 6.6 10.3 8.6-0.8 1-3.9-1.1-10.6-1.2z"/>
						</g>
					</g>
				</g>
				<g id="&lt;Group&gt;">
					<g id="&lt;Group&gt;">
						<path id="&lt;Path&gt;" class="s7" d="m1041.6 238.6l-17.7 30c-65.1-10-101.6-62.4-101.6-62.4l19-28.3z"/>
					</g>
					<g id="&lt;Group&gt;">
						<path id="&lt;Path&gt;" class="s8" d="m904.6 145.1l105.4 28.9 76.2 83.9-109.4-28.1z"/>
					</g>
					<g id="&lt;Group&gt;">
						<g id="&lt;Group&gt;">
							<path id="&lt;Path&gt;" class="s9" d="m1035.1 333.5c-0.9-0.3-1.4-1.2-1.1-2.1l24.4-79.5-56.7-53c-0.7-0.7-0.7-1.7-0.1-2.4 0.6-0.7 1.7-0.7 2.3-0.1l57.5 53.7c0.5 0.5 0.7 1.1 0.5 1.7l-24.7 80.6c-0.3 0.9-1.2 1.4-2.1 1.1q0 0 0 0z"/>
						</g>
					</g>
					<g id="&lt;Group&gt;">
						<g id="&lt;Group&gt;">
							<path id="&lt;Path&gt;" class="s9" d="m1039.9 345.8l-2.4 7.2c-3.8-0.7-7.4-2.1-10.4-3.6l2.1-9.3-5 7.7c-3-1.7-4.9-3.2-4.9-3.2 5.1-10.2 17.9-22.1 17.9-22.1 12.5 4.8 8 30.9 8 30.9q-2.5 0.2-4.8 0z"/>
						</g>
					</g>
				</g>
			</g>
			<g id="&lt;Group&gt;">
				<path id="&lt;Path&gt;" class="s6" d="m1114.8 587.9l-24.7-27.8c-0.3-0.3-0.2-0.7 0.1-0.9 0.3-0.3 0.7-0.3 0.9 0l24.7 27.7c0.2 0.3 0.2 0.8-0.1 1q-0.2 0.2-0.4 0.2-0.3 0-0.5-0.2z"/>
			</g>
			<path id="&lt;Path&gt;" class="s6" d="m1102.5 635.6c24.7 14.6 56.5 33.3 66.8 45 0.3 0.4 0.3 1-0.1 1.3q-0.3 0.2-0.6 0.2-0.4 0-0.6-0.3c-10.1-11.6-40.7-29.6-65.3-44"/>
		</g>
	</g>
</svg>